<svg xmlns="http://www.w3.org/2000/svg" width="150pt" height="150pt" viewBox="0 0 150 150" version="1.1">
<path fill="#ffffff" d=" M 0 0 L 150 0 L 150 150 L 0 150 L 0 0 Z"/>
<path fill="#fe0002" d=" M 34.7 25.8 C 43.7 13.3 57.7 4.6 72.9 2.2 C 85.9 0.1 99.6 2.5 111 9.1 C 123.9 16.5 133.9 28.8 138.1 43 C 143.1 58.9 140.7 76.9 131.9 91 C 127.7 98.1 121.7 104 115.1 108.8 C 115.6 107.3 116.2 105.7 116.7 104.1 C 119.7 101.6 122.6 98.8 125 95.8 C 135.2 83.7 139.8 67.1 137.2 51.5 C 135.4 39.4 129.3 28 120.4 19.6 C 109 8.6 92.8 3 77 4.5 C 61.1 5.9 46 14.7 36.8 27.7 C 28.1 39.8 24.6 55.5 27.3 70.1 C 30.4 88.2 43.1 104.1 59.9 111.5 L 59.2 113.8 C 59.7 113.5 60.8 112.9 61.3 112.6 C 68.4 114.1 75.5 116.5 82.9 116.1 C 82.5 117 82.1 118 81.7 119 C 68 118.7 54.5 113.8 44.2 104.8 C 33 95.3 25.6 81.5 24 67 C 22.3 52.5 26.2 37.5 34.7 25.8 Z"/>
<path fill="#ffffff" d=" M 36.8 27.7 C 46 14.7 61.1 5.9 77 4.5 C 92.8 3 109 8.6 120.4 19.6 C 129.3 28 135.4 39.4 137.2 51.5 C 139.8 67.1 135.2 83.7 125 95.8 C 125.8 92.6 128.2 90.3 129.7 87.5 C 136.2 76.3 138.6 62.8 136 50 C 133.6 36.4 125.6 23.9 114.4 15.7 C 102.9 7.3 88.1 3.5 74 5.8 C 58.7 8 44.6 17.2 36.2 30.3 C 27.8 43 25.2 59.3 29.1 74 C 33.1 90.1 45 103.9 60.2 110.5 L 59.9 111.5 C 43.1 104.1 30.4 88.2 27.3 70.1 C 24.6 55.5 28.1 39.8 36.8 27.7 Z"/>
<path fill="#000075" d=" M 36.2 30.3 C 44.6 17.2 58.7 8 74 5.8 C 88.1 3.5 102.9 7.3 114.4 15.7 C 125.6 23.9 133.6 36.4 136 50 C 138.6 62.8 136.2 76.3 129.7 87.5 C 128.2 90.3 125.8 92.6 125 95.8 L 124.6 94.9 C 121.9 98.2 118.7 101 115.8 104.1 C 115.2 101.7 113.5 99.8 112.1 97.8 C 111.2 95.1 112 92.2 111.2 89.5 C 110.5 87.3 109.3 85.2 108.6 82.9 C 108.8 80 110.1 77 109.1 74.1 C 108.2 71.2 107.9 68.2 108.2 65.1 C 108.9 65.5 110.3 66.3 111 66.8 C 111.8 65.9 112.5 64.9 113.3 64 L 113.2 63.9 C 113.9 61.9 114 59.8 113.4 57.7 C 114.3 58.7 115.5 59.4 116.8 59.7 L 116.8 59.1 C 117.1 56.6 115.5 54.6 114.3 52.5 C 115.2 52.6 116 52.8 116.9 52.9 C 117.2 53.4 118 54.5 118.4 55 C 120.8 51.5 115 50.3 116.2 47.4 C 119.2 46.8 122.4 47 125.5 46.8 C 124.8 48.3 124 49.8 123.3 51.3 C 124.3 52.2 126.4 54.1 127.4 55 L 124.9 51.3 C 127.3 49.9 129.9 48.6 132 46.6 C 132.5 44.7 130.3 45.1 129.1 45 C 127 44.8 124.9 45.1 122.8 45.6 C 123.3 43.1 120.6 42.7 119 41.8 C 118.4 40.8 117.8 39.7 117.1 38.7 C 116.2 38.8 114.4 38.8 113.5 38.9 C 113.4 38 113.3 37.1 113.3 36.2 C 111.8 36 110.3 35.9 108.8 35.8 C 108.7 36.5 108.7 37.9 108.7 38.5 C 105.8 39.1 103 39.8 100.2 40.1 C 99.3 37.2 98.7 34.2 98.6 31.1 C 99.2 30.5 100.2 29.4 100.8 28.8 C 97.3 28.2 95.2 31.1 94.5 34.1 C 93.7 34.1 92.1 34.1 91.3 34.1 C 91.9 33.3 92.5 32.4 93.1 31.5 C 91.3 30.5 89.5 29.4 87.9 28.2 C 87.4 30 86.8 31.7 86.1 33.4 C 86.8 33.8 88 34.5 88.6 34.9 C 87.5 35.5 86.3 36 85.2 36.5 C 85.2 36 85.3 35 85.3 34.5 C 82.9 34.2 80.5 34 78.1 33.9 C 80.8 36.2 84.5 37.9 85.7 41.5 C 85 41.9 83.5 42.9 82.8 43.4 C 83.6 43.5 85.2 43.8 86 43.9 C 85 44.2 84 44.6 83 45 C 82.2 45.2 80.8 45.7 80 46 C 81 46.7 81.9 47.4 82.9 48.1 C 81.3 48.6 79.7 49 78.1 49.4 C 79.3 50.2 80.5 51 81.7 51.7 C 81.1 52.2 79.9 53.1 79.3 53.5 C 79 53.8 78.2 54.4 77.8 54.7 C 78.8 54.6 80.7 54.3 81.7 54.2 C 81 54.8 79.5 56.2 78.8 56.8 C 79.7 56.8 81.5 56.6 82.4 56.5 C 81 59.8 78.6 63.6 80.8 67.1 C 84.6 70.3 88.5 73.3 91.5 77.2 C 89.2 82.5 84.8 87 84.2 93 C 83.8 95.9 82 98.3 81.1 101 C 82.2 102.7 81.6 104.6 81.4 106.4 C 82.2 105.9 83.7 104.8 84.4 104.3 C 84.1 106.1 83.8 107.9 83.6 109.6 C 85.1 108.5 86.7 107.3 88.2 106.2 C 88.8 107.7 89.3 109.2 89.8 110.8 C 89.2 111.9 88.6 113 88.1 114.1 L 87.8 114.5 C 85.1 115.1 82.3 117.6 83.3 120.6 C 85.9 123.3 90.3 123.7 93.8 122.8 C 95.3 121.3 95.7 119 96.6 117 C 96.7 115 97.9 112.7 96.9 110.8 L 96.8 110.2 C 96.9 109.5 97.1 108.1 97.2 107.4 C 97.6 108.1 98.2 109.6 98.6 110.3 C 99 109.7 99.7 108.3 100.1 107.6 C 101.5 109.6 101.8 111.7 99.4 112.8 C 99 113.2 98.2 113.8 97.9 114.1 C 98.3 114.5 99.2 115.4 99.7 115.9 C 97.5 117.9 96.3 120.6 95.3 123.4 L 95.2 123.8 L 95.7 123.8 C 91.6 125.2 87 124.6 83.3 122.4 C 82.2 121.7 81.7 120.2 81.7 119 C 82.1 118 82.5 117 82.9 116.1 L 83.6 115.2 C 76.3 115.6 69.2 113.6 62.2 111.8 C 62 112 61.5 112.4 61.3 112.6 C 60.8 112.9 59.7 113.5 59.2 113.8 L 59.9 111.5 L 60.2 110.5 C 45 103.9 33.1 90.1 29.1 74 C 25.2 59.3 27.8 43 36.2 30.3 Z"/>
<path fill="#ffffff" d=" M 64.9 11.6 C 67.8 11 70.7 10 73.6 9.2 C 73.7 9.6 73.9 10.3 74 10.6 C 73.5 10.8 72.4 11.2 71.8 11.4 C 71.6 14.2 74.8 17.6 72.4 19.9 C 71.5 17.3 70.8 14.6 70.2 12 C 68.8 11.3 67.6 12.1 66.5 12.8 C 67.4 15.4 70.2 18.1 69 21.1 C 67 19.6 65.2 18 63.5 16.2 C 63.5 16.7 63.3 17.6 63.3 18.1 L 62.7 19.2 C 61.8 17.2 61 15.1 60.4 13 C 63.1 13.3 64.8 15.8 67 17.2 C 66.2 15.4 65.5 13.5 64.9 11.6 Z"/>
<path fill="#ffffff" d=" M 75 9 C 77.1 8.8 79.2 8.7 81.3 8.6 C 81.1 11.6 75.5 8.9 76.8 12.7 C 78.2 12.5 79.5 12.3 80.9 12.2 C 80.9 12.6 81 13.5 81 13.9 C 79.7 14 78.4 14 77.1 14.1 C 77.1 14.8 77.2 16.1 77.3 16.8 C 78.8 16.7 80.3 16.6 81.8 16.4 L 81.9 17.9 C 79.9 18.1 77.9 18.3 76 18.6 C 75.6 15.4 75.3 12.2 75 9 Z"/>
<path fill="#ffffff" d=" M 82.7 8.6 L 84.2 8.6 C 84.1 11.3 84 13.9 84 16.6 C 85.4 16.6 86.8 16.7 88.2 16.8 C 89.2 14.2 88 9.8 91.1 8.7 C 90.9 11.4 90.3 14.1 89.8 16.8 C 91.2 17.3 92.5 17.8 93.8 18.4 C 94.6 15.5 95.4 12.7 96.5 9.9 C 97 10.6 97.8 11.2 97.2 12.2 C 96.6 14.8 95.7 17.3 95 19.9 C 90.8 18.7 86.5 18 82.2 17.9 C 82.3 14.8 82.5 11.7 82.7 8.6 Z"/>
<path fill="#ffffff" d=" M 99.6 12.6 C 102.1 10.9 105.5 13.8 104.8 16.7 C 103.2 15.9 102.4 13.1 100.2 14 C 98.4 15.5 97.8 18 98.8 20.1 C 99.7 20.1 101.3 20 102.2 19.9 C 101.7 19.4 100.8 18.5 100.4 18 L 100.9 16.7 C 102 17.2 103 17.6 104.1 18.1 C 103.2 19.9 102.7 22.8 100 21.9 C 95.2 21.3 96.1 14.4 99.6 12.6 Z"/>
<path fill="#ffffff" d=" M 57.6 15.4 C 58 15.1 58.4 14.7 58.8 14.3 C 60.2 17.4 63.2 20.2 63.1 23.9 C 60.5 21.6 59.5 18.2 57.6 15.4 Z"/>
<path fill="#ffffff" d=" M 107.4 14.9 C 109.3 16.2 111.7 17 112.6 19.3 C 110.6 19.4 108.8 16.6 107 18.1 C 107.4 19.9 109.8 20.5 110.4 22.3 C 108.8 21.9 107.3 21.2 105.9 20.4 C 105.6 20.9 105 21.9 104.7 22.4 C 106 23.4 107.3 24.4 108.7 25.4 C 110.8 23.5 112 19.9 115.2 19.6 C 114.7 22.1 114 24.6 113.4 27.1 C 114.8 25.6 116.1 24 117.4 22.5 C 117.8 22.7 118.4 23.1 118.8 23.3 C 116.7 25.6 114.8 28 112.6 30.1 C 112.2 30.1 111.4 30.1 111 30.1 C 111.6 27.6 112.2 25.3 112.9 22.9 C 111.5 24.4 110.2 25.8 108.8 27.2 C 106.7 25.7 104.6 24.4 102.4 23 C 104.1 20.3 105.8 17.7 107.4 14.9 Z"/>
<path fill="#ffffff" d=" M 48.4 21.8 C 49.7 20.5 51.2 19.4 52.6 18.3 C 52.9 18.6 53.4 19.2 53.7 19.6 C 52.4 20.8 49.7 21.7 51.1 23.9 C 52.7 23.1 54.1 21.3 56.1 22 C 55 23.1 53.9 24.2 52.7 25.2 C 53.1 25.7 53.9 26.6 54.3 27 C 55.5 26.2 56.6 25.3 57.7 24.4 C 58 24.7 58.5 25.4 58.8 25.7 C 57.2 26.9 55.6 28.1 54 29.3 C 52.2 26.8 49.7 24.6 48.4 21.8 Z"/>
<path fill="#ffffff" d=" M 63.3 18.1 L 63.7 18.1 C 64.5 19.1 65.3 20.6 64.8 21.8 C 63.1 22 62.5 19.3 63.3 18.1 Z"/>
<path fill="#ffffff" d=" M 42.6 28.2 C 44.1 26.1 45.6 23.9 48 22.7 C 47.7 23.8 47.4 24.9 47.1 26 C 48.8 28.1 51.9 29.4 52.4 32.4 C 49.7 31.1 47.7 28.8 45.5 26.9 L 44.5 27.9 C 44 28 43.1 28.1 42.6 28.2 Z"/>
<path fill="#ffffff" d=" M 114 31.9 C 114 27.9 120.2 24 123 28.1 C 123.3 29.3 123.3 32.7 121.2 31.1 C 121.2 30.3 121.1 28.6 121.1 27.7 C 118.3 27.6 115 29.9 115.8 33 C 116.7 33 118.5 33 119.3 32.9 C 119 36.5 113.9 34.7 114 31.9 Z"/>
<path fill="#ffffff" d=" M 87.9 28.2 C 89.5 29.4 91.3 30.5 93.1 31.5 C 92.5 32.4 91.9 33.3 91.3 34.1 C 92.1 34.1 93.7 34.1 94.5 34.1 C 95.2 31.1 97.3 28.2 100.8 28.8 C 100.2 29.4 99.2 30.5 98.6 31.1 C 98.7 34.2 99.3 37.2 100.2 40.1 C 103 39.8 105.8 39.1 108.7 38.5 C 108.7 37.9 108.7 36.5 108.8 35.8 C 110.3 35.9 111.8 36 113.3 36.2 C 113.3 37.1 113.4 38 113.5 38.9 C 114.4 38.8 116.2 38.8 117.1 38.7 C 117.8 39.7 118.4 40.8 119 41.8 C 120.6 42.7 123.3 43.1 122.8 45.6 C 124.9 45.1 127 44.8 129.1 45 C 130.3 45.1 132.5 44.7 132 46.6 C 129.9 48.6 127.3 49.9 124.9 51.3 L 127.4 55 C 126.4 54.1 124.3 52.2 123.3 51.3 C 124 49.8 124.8 48.3 125.5 46.8 C 122.4 47 119.2 46.8 116.2 47.4 C 115 50.3 120.8 51.5 118.4 55 C 118 54.5 117.2 53.4 116.9 52.9 C 116.9 52.4 116.8 51.3 116.8 50.8 C 113.6 48.9 116.4 45.3 117.9 43.1 C 117.8 42.2 117.5 40.4 117.3 39.5 C 115 39.6 112.5 39.7 110.2 39.8 C 109.5 41.3 107 42.7 108.5 44.5 C 110.2 46.5 111 49 110.7 51.7 C 108.4 53.2 106 54.6 103.9 56.5 C 102.6 56 101.3 55.5 100 54.9 C 100.6 54.9 101.8 54.7 102.4 54.6 C 101.6 53.3 100.8 52 99.9 50.8 C 96.9 50 93.5 50.5 91.1 52.4 C 90.9 51.9 90.7 51.4 90.6 50.9 C 91.4 49.6 92 48.2 93.1 47.2 C 94.8 46.3 96.6 46.9 98.3 47.1 C 96.1 48 93.5 48.3 91.7 50.1 C 94.8 49 98.2 49.2 101.3 50.4 C 101.5 48.7 101.6 47 101.8 45.4 C 101 45.8 99.4 46.6 98.6 47 C 99.6 46 100.6 44.9 101.6 43.9 C 100.9 43 100.2 42 99.5 41.1 C 99.4 40.2 99.3 38.6 99.3 37.8 C 94.5 37.6 89.6 38.6 85.7 41.5 C 84.5 37.9 80.8 36.2 78.1 33.9 C 80.5 34 82.9 34.2 85.3 34.5 C 85.3 35 85.2 36 85.2 36.5 C 86.3 36 87.5 35.5 88.6 34.9 C 88 34.5 86.8 33.8 86.1 33.4 C 86.8 31.7 87.4 30 87.9 28.2 Z"/>
<path fill="#ffffff" d=" M 40.1 31.3 C 40.6 30.8 41.1 30.3 41.6 29.8 C 44.3 30.9 47.3 31.5 50 32.7 L 50.5 33.9 C 48.9 33.9 46.8 33.3 46.3 35.3 C 45.7 36.6 47.5 38 46.4 39.3 C 44.2 36.7 42.2 33.9 40.1 31.3 Z"/>
<path fill="#000075" d=" M 43.1 32.1 C 44.6 31.2 47 33.8 44.9 34.6 C 43.8 34.6 42.7 33.1 43.1 32.1 Z"/>
<path fill="#ffffff" d=" M 117 36.3 C 119.8 34.8 122.5 33.2 125.3 31.6 C 126.3 33.4 127.4 35.2 128.3 37.1 C 126 37.7 125.6 34.8 124.4 33.6 C 121.6 35 125.4 37.2 124.1 39 C 122.6 38.8 122.3 36.6 121.2 35.6 C 117.9 36.7 121 39.4 121.4 41.4 C 119.3 40.4 118.4 38 117 36.3 Z"/>
<path fill="#ffffff" d=" M 38.4 33.6 C 38.9 33.7 39.7 34 40.1 34.1 C 39.8 34.6 39.3 35.7 39 36.2 C 41.4 37.6 44 38.8 46.3 40.4 C 42.9 42.7 38.9 34.9 36.8 39.9 C 35 38 37.9 35.6 38.4 33.6 Z"/>
<path fill="#ffffff" d=" M 56 36.8 C 57.8 36.1 59.6 35.2 61.5 34.9 C 68.1 36.2 74.9 36.3 81.3 38 C 74.9 37.7 68.5 36.5 62 36 C 60.3 35.7 58.9 36.9 57.5 37.5 C 65 40.9 73.5 40.2 81.4 41.8 C 78 42.8 74.5 41.6 71.1 41.3 C 65.9 40.4 59.9 41.1 56 36.8 Z"/>
<path fill="#ffe500" d=" M 57.5 37.5 C 58.9 36.9 60.3 35.7 62 36 C 68.5 36.5 74.9 37.7 81.3 38 C 82.4 38.9 83.3 39.9 84.3 40.8 C 83.4 41.2 82.4 41.5 81.4 41.8 C 73.5 40.2 65 40.9 57.5 37.5 Z"/>
<path fill="#ffe500" d=" M 109.3 37.8 C 109.5 36.3 111.7 36.5 112.5 37.2 C 113.4 39.1 109.5 39.7 109.3 37.8 Z"/>
<path fill="#fe0002" d=" M 85.7 41.5 C 89.6 38.6 94.5 37.6 99.3 37.8 C 99.3 38.6 99.4 40.2 99.5 41.1 C 100.2 42 100.9 43 101.6 43.9 C 100.6 44.9 99.6 46 98.6 47 L 98.4 47.1 L 98.3 47.1 C 96.6 46.9 94.8 46.3 93.1 47.2 C 92 48.2 91.4 49.6 90.6 50.9 C 90.7 51.4 90.9 51.9 91.1 52.4 C 93.5 50.5 96.9 50 99.9 50.8 C 100.8 52 101.6 53.3 102.4 54.6 C 101.8 54.7 100.6 54.9 100 54.9 C 101.3 55.5 102.6 56 103.9 56.5 C 106 54.6 108.4 53.2 110.7 51.7 C 111 49 110.2 46.5 108.5 44.5 C 107 42.7 109.5 41.3 110.2 39.8 C 112.5 39.7 115 39.6 117.3 39.5 C 117.5 40.4 117.8 42.2 117.9 43.1 C 116.4 45.3 113.6 48.9 116.8 50.8 C 116.8 51.3 116.9 52.4 116.9 52.9 C 116 52.8 115.2 52.6 114.3 52.5 C 115.5 54.6 117.1 56.6 116.8 59.1 C 115.9 57.8 114.7 57.2 113.3 57.1 L 113.4 57.7 C 114 59.8 113.9 61.9 113.2 63.9 C 112 62.8 110.8 61.7 109.5 60.5 C 110.3 62.4 111 64.2 111.5 66.2 C 107.3 63.9 102.9 60.8 97.9 62.3 C 94.2 62.6 89.7 65.7 86.7 62.3 C 85 60.9 87.3 57.5 85.4 56.6 C 84 56.6 79.5 56.9 84.4 54.8 C 83.4 55 81.4 55.6 80.4 55.9 C 82 54.6 83.5 53.4 85.1 52.1 C 83.2 52.5 81.3 53.1 79.3 53.5 C 79.9 53.1 81.1 52.2 81.7 51.7 C 82.9 51.2 84.1 50.7 85.2 50.2 C 83.7 50.2 82.2 50.2 80.6 50.2 C 82.6 48.9 84.5 47.7 86.2 46.1 L 82.6 47.7 C 82.7 46.8 82.8 45.9 83 45 C 84 44.6 85 44.2 86 43.9 C 85.2 43.8 83.6 43.5 82.8 43.4 C 83.5 42.9 85 41.9 85.7 41.5 Z"/>
<path fill="#fe0002" d=" M 101.5 41.2 C 104 40.7 106.4 39.1 109 39.9 C 108.6 40.4 107.8 41.6 107.4 42.1 C 107.4 43.5 107.5 44.8 107.5 46.1 C 105.8 46.2 104.2 46.2 102.5 46.2 C 102.1 44.5 101.8 42.8 101.5 41.2 Z"/>
<path fill="#ffffff" d=" M 35.4 46.6 C 31.8 45.2 34.9 38.7 38.2 41.6 C 37.2 42.7 35.2 43 35.2 44.7 C 36.9 45.7 37.7 43.6 38.8 42.7 C 40.7 40.4 44.8 43.7 43.3 46.2 C 43 48.4 40.4 48.3 38.7 48.1 C 40 46.9 42.5 46.2 41.9 44 C 39.1 43.1 38.3 48.3 35.4 46.6 Z"/>
<path fill="#ffffff" d=" M 89.8 45 C 91.3 42.1 94.6 40.1 97.3 42.7 C 96.7 42.6 95.4 42.5 94.7 42.4 C 94.5 42.9 94.1 44 93.8 44.5 C 93.8 43.8 93.8 42.5 93.8 41.8 C 92.5 42.9 91.2 44 89.8 45 Z"/>
<path fill="#ffe500" d=" M 119 42.7 C 120 43.4 122.6 43.1 121.8 45 C 122 47.5 118.1 45.8 116.6 46 C 117.4 44.9 118.2 43.8 119 42.7 Z"/>
<path fill="#ffffff" d=" M 80 46 C 80.8 45.7 82.2 45.2 83 45 C 82.8 45.9 82.7 46.8 82.6 47.7 L 86.2 46.1 C 84.5 47.7 82.6 48.9 80.6 50.2 C 82.2 50.2 83.7 50.2 85.2 50.2 C 84.1 50.7 82.9 51.2 81.7 51.7 C 80.5 51 79.3 50.2 78.1 49.4 C 79.7 49 81.3 48.6 82.9 48.1 C 81.9 47.4 81 46.7 80 46 Z"/>
<path fill="#000075" d=" M 98.6 47 C 99.4 46.6 101 45.8 101.8 45.4 C 101.6 47 101.5 48.7 101.3 50.4 C 98.2 49.2 94.8 49 91.7 50.1 C 93.5 48.3 96.1 48 98.3 47.1 L 98.4 47.1 L 98.6 47 Z"/>
<path fill="#000075" d=" M 126 48 C 125 46.4 127.6 45.3 128.7 46.4 C 129.6 47.9 127 49.3 126 48 Z"/>
<path fill="#fe0002" d=" M 102.1 47.7 C 104.3 47.7 106.6 47.7 108.7 46.8 C 107.8 48.7 107.1 50.8 106.5 52.8 C 105.8 53.2 104.4 54.1 103.7 54.5 C 102.4 52.5 101.3 50.2 102.1 47.7 Z"/>
<path fill="#ffffff" d=" M 32.7 47.7 L 34.2 47.9 C 34 49.3 33.8 50.8 33.6 52.2 C 36.2 52.6 36.1 50.2 36.4 48.4 C 38.8 48.9 37.2 51.3 37.2 52.9 C 37.8 52.9 39.1 53 39.7 53 C 40.2 51.4 39.6 48.8 42.1 48.7 C 41.8 50.9 41.4 53 40.9 55.1 C 37.9 54.3 34.8 53.9 31.7 53.2 C 32 51.3 32.3 49.5 32.7 47.7 Z"/>
<path fill="#000075" d=" M 109.2 47.9 C 110.5 48.6 110 52.3 108.1 51.8 C 107.6 50.5 108.5 49 109.2 47.9 Z"/>
<path fill="#ffffff" d=" M 79.3 53.5 C 81.3 53.1 83.2 52.5 85.1 52.1 C 83.5 53.4 82 54.6 80.4 55.9 C 81.4 55.6 83.4 55 84.4 54.8 C 79.5 56.9 84 56.6 85.4 56.6 C 87.3 57.5 85 60.9 86.7 62.3 C 89.7 65.7 94.2 62.6 97.9 62.3 C 102.9 60.8 107.3 63.9 111.5 66.2 C 111 64.2 110.3 62.4 109.5 60.5 C 110.8 61.7 112 62.8 113.2 63.9 L 113.3 64 C 112.5 64.9 111.8 65.9 111 66.8 C 110.3 66.3 108.9 65.5 108.2 65.1 C 107.9 68.2 108.2 71.2 109.1 74.1 C 110.1 77 108.8 80 108.6 82.9 C 109.3 85.2 110.5 87.3 111.2 89.5 C 112 92.2 111.2 95.1 112.1 97.8 C 113.5 99.8 115.2 101.7 115.8 104.1 C 118.7 101 121.9 98.2 124.6 94.9 L 125 95.8 C 122.6 98.8 119.7 101.6 116.7 104.1 C 115.8 104.2 114 104.3 113.1 104.4 C 113.4 105.9 113.7 107.4 113.9 108.8 C 113.4 108.6 112.2 108.2 111.7 108 C 111.6 108.6 111.5 109.8 111.5 110.4 C 110.6 110 109 109.3 108.2 108.9 C 108.5 111.3 108.8 113.6 109 116 C 108 113.5 107.7 110.8 107.5 108.1 C 108.5 108.4 110.3 108.9 111.2 109.2 C 110.7 107.7 110.1 106.3 109.5 104.8 C 110.8 105.9 112.2 107 113.5 108 C 113.1 105.5 112.5 103 110.2 101.5 C 112 102.2 113.7 103.2 115.3 104.1 C 114.6 101.6 112.9 99.8 111.6 97.7 C 110.9 94.6 111.3 91.2 109.9 88.3 C 108.8 85.7 107.3 82.9 108.4 80 C 110 75.1 106.3 70.3 107.8 65.4 C 103.9 62.3 98.6 63.2 94.2 64.2 C 91.8 64.7 89 65.8 86.9 64.1 C 84.8 63 85.5 60 83.8 58.8 C 81.4 58.8 80.5 61.9 80.6 64 C 80.4 66.3 82.6 67.6 84.1 68.9 C 87 71.2 89.4 74 92.1 76.5 C 90.9 81.9 86.5 85.8 85.3 91.2 C 84.7 94.7 83.3 97.9 81.5 100.8 C 82.5 100.5 84.3 99.8 85.3 99.4 C 83.6 101 82.3 102.9 81.7 105.2 C 82.8 104.7 84.9 103.7 85.9 103.2 C 85.2 104.8 84.5 106.5 83.8 108.1 C 85.4 107.3 86.9 106.5 88.5 105.6 C 89.3 107.4 90 109.3 90.7 111.2 C 90.2 111.9 89.2 113.3 88.7 114 C 88.5 114 88.2 114.1 88.1 114.1 C 88.6 113 89.2 111.9 89.8 110.8 C 89.3 109.2 88.8 107.7 88.2 106.2 C 86.7 107.3 85.1 108.5 83.6 109.6 C 83.8 107.9 84.1 106.1 84.4 104.3 C 83.7 104.8 82.2 105.9 81.4 106.4 C 81.6 104.6 82.2 102.7 81.1 101 C 82 98.3 83.8 95.9 84.2 93 C 84.8 87 89.2 82.5 91.5 77.2 C 88.5 73.3 84.6 70.3 80.8 67.1 C 78.6 63.6 81 59.8 82.4 56.5 C 81.5 56.6 79.7 56.8 78.8 56.8 C 79.5 56.2 81 54.8 81.7 54.2 C 80.7 54.3 78.8 54.6 77.8 54.7 C 78.2 54.4 79 53.8 79.3 53.5 Z"/>
<path fill="#ffffff" d=" M 130.9 53 C 129 53 126.9 53.5 125.4 52.1 C 127.8 51.2 132 50.7 133.2 53.8 C 134.2 55.4 133 57 132.2 58.4 C 131.4 58.1 129.8 57.5 129 57.3 L 129.2 58.9 C 127.9 59 126.5 59 125.1 59 C 124 57.2 123.3 55.1 124 53 C 124.9 54.5 125.6 56.2 126.9 57.6 C 127 55.8 127.8 55 129.3 55.1 L 128.5 57.1 C 129.5 57.1 130.5 57.1 131.5 57.1 C 131.9 55.7 131.8 54.3 130.9 53 Z"/>
<path fill="#ffffff" d=" M 61.7 56.7 C 66.6 53.7 72.7 56 76.9 59.1 C 76.6 58.4 75.9 56.9 75.6 56.1 C 76.2 56.3 77.2 56.5 77.8 56.7 C 77.7 57 77.4 57.5 77.2 57.8 C 78.1 58 79.8 58.2 80.7 58.3 C 80.1 58.9 79 59.9 78.4 60.5 L 78.1 58.4 C 77.6 58.9 77.1 59.5 76.6 60 C 78.5 60.5 78.6 62.6 78.8 64.2 C 77.1 61 74.6 57.9 70.9 57 C 66.4 54.9 60.9 57.2 58 60.9 C 55.5 65.7 55 71.5 51.7 75.9 C 50.4 77.9 47.9 78.3 46.2 79.7 C 49.6 81.5 52.7 78.6 55.1 76.7 C 55 79 55.1 81.3 54.5 83.6 C 53.7 86.3 51.5 88.2 49.6 90.3 C 53.2 90.1 56 88.2 57.1 84.7 C 59.1 89.9 59.5 95.7 56.1 100.5 C 59.1 98.4 61.2 95.3 61.5 91.6 C 67.6 94.7 66.2 102.4 64.8 107.8 C 70 101.2 67.8 91.7 62.8 85.7 C 64.7 85.9 66.7 86 68.7 86.1 L 68.6 85.3 C 62.4 85.3 59 79.7 56.6 74.9 C 58.6 75.7 60.7 76.6 62.9 76.5 C 60.8 75 57.7 74 57.1 71.1 C 55.8 65.7 60.5 59.8 66 59.4 C 70.7 58.9 76.5 61.7 77.1 66.9 C 78 70.4 76.4 73.9 75 77 C 73.8 74.8 72.3 72.6 70 71.5 C 72 74.5 73.9 77.6 74.3 81.2 C 72.5 80.4 70.8 79.6 69 78.8 C 70.3 79.9 71.5 81.1 72.7 82.3 C 73.8 85 74 88.1 75.2 90.8 C 76.4 93.5 78.8 95.3 80.8 97.4 C 81 97.6 81.3 98 81.5 98.2 C 75.5 95.8 73 89.2 72.3 83.2 C 70.4 85.2 68.3 87.6 65.1 87.1 C 67.9 92.2 70 98.4 67.8 104.1 C 66.8 107.2 64.5 109.7 61.7 111.2 C 64.5 105.7 67.5 98.1 62.4 93 C 61.5 97.7 57.6 101 53 102.1 C 56.5 98.2 59.3 93.1 57.1 87.8 C 54.8 90.3 51 92 48 89.5 C 52.3 87.6 54.3 83.3 54.3 78.8 C 51.7 80.5 48.1 82.4 45.2 80.2 C 43.2 79.6 43.4 82.9 42.7 84 C 44.2 83.3 45.6 82.6 47 81.9 C 47.1 82.3 47.3 83.2 47.4 83.6 C 44.5 84.9 41.8 86.3 39.2 87.9 C 38.4 86.3 37.5 84.8 37 83.1 C 36.9 80.9 39.9 80.2 41.6 80.9 C 42.2 80.5 43.3 79.8 43.9 79.4 C 44 79 44.2 78.2 44.3 77.8 C 45.8 77.9 47.6 78.3 48.9 77.3 C 56 72.3 53.3 60.5 61.7 56.7 Z"/>
<path fill="#fe0002" d=" M 58 60.9 C 60.9 57.2 66.4 54.9 70.9 57 C 74.6 57.9 77.1 61 78.8 64.2 C 79.1 65.2 79.3 66.3 79.5 67.4 C 79.4 69.2 79.3 71 79.2 72.8 C 79.7 72.8 80.7 72.8 81.2 72.8 C 79.6 74.8 78.2 77 77.4 79.5 C 79.5 79.1 81.6 78.7 83.7 78.5 C 81.5 80.1 77.7 80.9 77.3 84.2 C 76.9 88.2 80.4 91.1 83.2 93.3 C 82.5 94.7 81.7 96 80.8 97.4 C 78.8 95.3 76.4 93.5 75.2 90.8 C 74 88.1 73.8 85 72.7 82.3 C 71.5 81.1 70.3 79.9 69 78.8 C 70.8 79.6 72.5 80.4 74.3 81.2 C 73.9 77.6 72 74.5 70 71.5 C 72.3 72.6 73.8 74.8 75 77 C 76.4 73.9 78 70.4 77.1 66.9 C 76.5 61.7 70.7 58.9 66 59.4 C 60.5 59.8 55.8 65.7 57.1 71.1 C 57.7 74 60.8 75 62.9 76.5 C 60.7 76.6 58.6 75.7 56.6 74.9 C 59 79.7 62.4 85.3 68.6 85.3 L 68.7 86.1 C 66.7 86 64.7 85.9 62.8 85.7 C 67.8 91.7 70 101.2 64.8 107.8 C 66.2 102.4 67.6 94.7 61.5 91.6 C 61.2 95.3 59.1 98.4 56.1 100.5 C 59.5 95.7 59.1 89.9 57.1 84.7 C 56 88.2 53.2 90.1 49.6 90.3 C 51.5 88.2 53.7 86.3 54.5 83.6 C 55.1 81.3 55 79 55.1 76.7 C 52.7 78.6 49.6 81.5 46.2 79.7 C 47.9 78.3 50.4 77.9 51.7 75.9 C 55 71.5 55.5 65.7 58 60.9 Z"/>
<path fill="#ffffff" d=" M 113.3 57.1 C 114.7 57.2 115.9 57.8 116.8 59.1 L 116.8 59.7 C 115.5 59.4 114.3 58.7 113.4 57.7 L 113.3 57.1 Z"/>
<path fill="#ffffff" d=" M 39.3 62 C 39.5 60.3 38.4 57.6 41 57.7 C 41.1 60.1 40.6 62.5 41.1 64.9 C 39.7 65.8 38.5 67.2 40 68.6 C 41 69.2 41.9 70.1 42.7 71.1 C 39.1 70.9 35.6 70.2 32.2 69.6 C 32.1 69.3 32.1 68.7 32.1 68.3 C 34.8 66.4 38.1 65.3 40.7 63.2 C 37.5 63.2 34.3 63.5 31.1 63.4 C 32.6 60.6 36.7 62.5 39.3 62 Z"/>
<path fill="#fe0002" d=" M 80.6 64 C 80.5 61.9 81.4 58.8 83.8 58.8 C 85.5 60 84.8 63 86.9 64.1 C 89 65.8 91.8 64.7 94.2 64.2 C 98.6 63.2 103.9 62.3 107.8 65.4 C 106.3 70.3 110 75.1 108.4 80 C 107.3 82.9 108.8 85.7 109.9 88.3 C 111.3 91.2 110.9 94.6 111.6 97.7 C 112.9 99.8 114.6 101.6 115.3 104.1 C 113.7 103.2 112 102.2 110.2 101.5 C 112.5 103 113.1 105.5 113.5 108 C 112.2 107 110.8 105.9 109.5 104.8 C 110.1 106.3 110.7 107.7 111.2 109.2 C 110.3 108.9 108.5 108.4 107.5 108.1 C 107.7 110.8 108 113.5 109 116 C 109.5 118.1 111.5 120.1 110.3 122.3 C 109.3 124.3 110 126.5 110.2 128.6 C 105.7 129.1 101.1 129.2 96.7 127.7 C 96.9 127.1 97.1 125.9 97.3 125.3 C 99.5 124 101 121.8 101.8 119.3 L 101.9 119.3 C 102.9 115.3 102.6 111 100.5 107.5 C 99.8 107.4 98.5 107.4 97.9 107.3 C 98.4 106.1 99 104.9 99.5 103.7 C 98.4 104.5 97.3 105.3 96.2 106 C 96.6 104.5 97 103 97.4 101.5 C 94.3 103.2 95.4 107.2 96.5 109.8 L 96.8 110.2 L 96.9 110.8 C 96.6 113 96.1 115.2 95.8 117.4 C 94.8 119.2 94.5 122.1 92 122.4 C 89.2 122.5 85.8 122 83.7 119.9 C 83.8 117.8 85.2 116.1 87.1 115.3 C 87.3 115.1 87.6 114.7 87.8 114.5 L 88.1 114.1 C 88.2 114.1 88.5 114 88.7 114 C 89.2 113.3 90.2 111.9 90.7 111.2 C 90 109.3 89.3 107.4 88.5 105.6 C 86.9 106.5 85.4 107.3 83.8 108.1 C 84.5 106.5 85.2 104.8 85.9 103.2 C 84.9 103.7 82.8 104.7 81.7 105.2 C 82.3 102.9 83.6 101 85.3 99.4 C 84.3 99.8 82.5 100.5 81.5 100.8 C 83.3 97.9 84.7 94.7 85.3 91.2 C 86.5 85.8 90.9 81.9 92.1 76.5 C 89.4 74 87 71.2 84.1 68.9 C 82.6 67.6 80.4 66.3 80.6 64 Z"/>
<path fill="#ffffff" d=" M 124 59.8 C 127.2 60 130.4 60 133.6 60 C 133.5 62 133.3 64 133.2 66 L 131.6 66 C 131.7 64.7 131.8 63.3 131.9 62 C 131.4 61.9 130.4 61.8 129.9 61.8 C 129.7 63.2 129.5 64.6 129.3 66 C 127.5 65.1 128.1 62.9 127.8 61.2 C 127.2 61.2 126.1 61.2 125.6 61.3 C 125.5 62.7 125.4 64.1 125.3 65.5 L 123.8 65.5 C 123.9 63.6 124 61.7 124 59.8 Z"/>
<path fill="#000075" d=" M 62 61.7 C 66.9 58.5 75.3 60.8 76.3 67 C 76.9 69.7 76 72.3 75.2 74.8 C 73.2 72 70.3 70.5 67 70 C 69.4 72.9 72.1 75.7 73.2 79.4 C 71.2 78.5 68.5 77.5 67.7 80.5 C 69.3 81 70.9 81.6 72.4 82.4 C 70.6 83.9 68.2 84.2 65.9 84 C 62.5 83.1 60.6 79.8 58.6 77.2 C 60.9 77.4 63 77.1 65.2 76.6 C 63.9 74.1 60.1 74.9 58.7 72.3 C 56.3 68.7 58.8 64 62 61.7 Z"/>
<path fill="#ffffff" d=" M 124 65.8 C 127 66.6 130.1 67.4 133.2 68.3 C 132.9 68.7 132.4 69.5 132.2 69.8 C 130 69.9 128.1 70.6 126.2 71.6 C 128.2 71.9 130.3 72.2 132.2 72.9 L 131.1 73.9 C 128 73.5 124.9 72.5 121.9 71.6 C 122.1 71.3 122.6 70.6 122.8 70.2 C 124.9 69.9 127 69.3 128.9 68.4 C 126.9 68.1 124.9 67.8 123 67.2 L 124 65.8 Z"/>
<path fill="#000075" d=" M 35.1 68.9 C 34.6 67.6 37.1 66.7 38 67.4 C 38.9 69 36.1 69.8 35.1 68.9 Z"/>
<path fill="#ffffff" d=" M 79.5 67.4 C 80 68.5 80.3 69.7 80.5 71 C 80.9 71.5 81.7 72.7 82.2 73.3 C 81 74.8 79.7 76.3 78.6 77.9 C 81.1 77.7 83.9 77.3 86.1 79.1 C 83.2 80.5 78.4 80.8 78.1 84.9 C 78.2 88.5 82 90.2 83.2 93.3 C 80.4 91.1 76.9 88.2 77.3 84.2 C 77.7 80.9 81.5 80.1 83.7 78.5 C 81.6 78.7 79.5 79.1 77.4 79.5 C 78.2 77 79.6 74.8 81.2 72.8 C 80.7 72.8 79.7 72.8 79.2 72.8 C 79.3 71 79.4 69.2 79.5 67.4 Z"/>
<path fill="#ffffff" d=" M 42.2 75.9 C 42 74.3 39.9 72.2 42.2 71.1 C 42.9 73 43.6 74.9 44.3 76.8 C 41.3 78 38.2 79 35.2 80.1 C 34.5 78 33.9 75.9 33.4 73.7 C 35.8 74 35.5 76.8 36.5 78.4 C 39.7 77.4 35.6 73.6 38.5 72.8 C 38.9 74.1 39.3 75.4 39.7 76.7 C 40.6 76.5 41.4 76.2 42.2 75.9 Z"/>
<path fill="#ffffff" d=" M 121 74.2 C 121.8 74 123.2 73.6 124 73.4 C 126.2 74 128.9 74.8 129.8 77.2 C 130.3 78.5 129.2 79.7 128.9 81 C 128.1 81 126.4 81 125.5 81 C 126.4 79.8 128.8 78.9 128 77.1 C 126.6 76 124.9 74.7 123.1 75 C 121 75.9 122.7 77.9 123.1 79.4 C 120.1 79.7 119.8 76.2 121 74.2 Z"/>
<path fill="#ffffff" d=" M 117 81.2 C 118.9 80.6 120.4 82.1 122.1 82.8 C 124 83.1 125.9 83 127.8 83.1 C 127.5 83.6 127 84.5 126.7 85 C 125.6 84.8 123.6 84.3 122.5 84 C 123.1 85.6 126 87.8 123.7 89.2 C 122.3 85.9 119.9 83.2 117 81.2 Z"/>
<path fill="#000075" d=" M 39.1 82 C 41.1 81.4 41.4 83.8 42.2 85 C 40 86.2 38.1 84.3 39.1 82 Z"/>
<path fill="#ffffff" d=" M 96.5 109.8 C 95.4 107.2 94.3 103.2 97.4 101.5 C 97 103 96.6 104.5 96.2 106 C 97.3 105.3 98.4 104.5 99.5 103.7 C 99 104.9 98.4 106.1 97.9 107.3 C 98.5 107.4 99.8 107.4 100.5 107.5 C 102.6 111 102.9 115.3 101.9 119.3 C 101.8 117 101.9 114.8 102 112.5 C 101.7 112.7 101.2 113 101 113.1 C 100.6 113 99.8 112.9 99.4 112.8 C 101.8 111.7 101.5 109.6 100.1 107.6 C 99.7 108.3 99 109.7 98.6 110.3 C 98.2 109.6 97.6 108.1 97.2 107.4 C 97.1 108.1 96.9 109.5 96.8 110.2 L 96.5 109.8 Z"/>
<path fill="#fe0002" d=" M 19.8 108.7 C 24.9 107.4 29.8 104.7 35.1 105.2 C 38 105.3 40.8 109 38.5 111.4 C 37.1 112.4 35.3 112.7 33.8 113.2 C 38.9 119.4 45.7 124 52.9 127.3 C 68.7 135.1 87.4 136.6 104.2 131.3 C 105.6 131.2 107.1 131.2 108.5 131.1 C 91.8 137.5 72.5 137.1 56 129.9 C 48.5 126.6 41 122.8 35.2 116.8 C 32.6 113.8 29.4 111.2 28.4 107.2 C 24.9 108.5 21.3 109.6 17.8 110.6 C 22.7 121.5 32.1 129.8 42.2 135.8 C 59.5 145.6 80.4 148.4 99.8 144.7 C 116.2 141.6 131.9 133.5 142.5 120.6 C 144.1 118.3 146.9 115.3 144.8 112.4 C 142.1 111 139.1 110.3 136.2 109.3 C 134.3 113.7 130.7 117 127.2 120.2 C 122.5 124.4 117 127.6 111.3 130.1 C 111.5 129.7 112 128.9 112.3 128.5 C 119.1 124.6 125.9 120.5 130.9 114.4 C 128.8 114.2 126.2 114.1 125.2 111.8 C 124.7 109.6 126.6 106.9 128.9 107 C 134.1 106.4 138.8 109.1 143.6 110.4 C 146.5 111 147.8 114.2 146.6 116.7 C 144.2 121.6 140.1 125.5 136 129.1 C 107.9 152.7 63.6 153.6 34.1 132 C 27.2 126.5 20.7 120.1 16.9 112.1 C 15.8 110.2 18.2 109 19.8 108.7 Z"/>
<path fill="#000075" d=" M 113.1 104.4 C 114 104.3 115.8 104.2 116.7 104.1 C 116.2 105.7 115.6 107.3 115.1 108.8 C 114.7 110 114.4 111.3 114.2 112.5 C 112.8 112.2 111.3 111.8 109.9 111.4 C 109.2 115.8 114 118.6 113.2 122.7 C 111.4 120.8 111.1 117.8 109 116 C 108.8 113.6 108.5 111.3 108.2 108.9 C 109 109.3 110.6 110 111.5 110.4 C 111.5 109.8 111.6 108.6 111.7 108 C 112.2 108.2 113.4 108.6 113.9 108.8 C 113.7 107.4 113.4 105.9 113.1 104.4 Z"/>
<path fill="#ffe500" d=" M 30.4 107.4 C 32.5 106.4 36.1 107.4 34.8 110.3 C 33.7 109.5 32.6 107.1 31 108.7 C 31.5 109.3 32.6 110.8 33.2 111.5 C 31.4 111.1 29.6 109.3 30.4 107.4 Z"/>
<path fill="#ffe500" d=" M 36.4 107.3 C 38.4 106.6 38.4 111.8 36.1 110.9 C 35.7 109.7 35.8 108.5 36.4 107.3 Z"/>
<path fill="#ffe500" d=" M 17.8 110.6 C 21.3 109.6 24.9 108.5 28.4 107.2 C 29.4 111.2 32.6 113.8 35.2 116.8 C 41 122.8 48.5 126.6 56 129.9 C 72.5 137.1 91.8 137.5 108.5 131.1 C 109.5 130.8 110.4 130.5 111.3 130.1 C 117 127.6 122.5 124.4 127.2 120.2 C 130.7 117 134.3 113.7 136.2 109.3 C 139.1 110.3 142.1 111 144.8 112.4 C 146.9 115.3 144.1 118.3 142.5 120.6 C 131.9 133.5 116.2 141.6 99.8 144.7 C 80.4 148.4 59.5 145.6 42.2 135.8 C 32.1 129.8 22.7 121.5 17.8 110.6 Z"/>
<path fill="#ffe500" d=" M 128 109.1 C 128.6 108.4 128.6 108.4 128 109.1 Z"/>
<path fill="#ffe500" d=" M 131.3 108 C 132.4 108.4 133.4 108.9 134.5 109.3 C 134 110.5 133.4 111.7 132.9 112.9 C 131.1 112.9 129.4 112.9 127.6 112.9 L 127.6 111.7 C 129.4 111.9 133.8 113 132.9 109.8 L 131.4 108.6 C 131.4 109.3 131.4 110.6 131.4 111.2 C 130.8 111.1 129.5 110.9 128.9 110.8 C 129.7 109.9 130.5 108.9 131.3 108 Z"/>
<path fill="#ffe500" d=" M 127.6 111.7 C 126.1 112 126.6 108.8 128 109.1 C 127.9 109.8 127.7 111.1 127.6 111.7 Z"/>
<path fill="#ffffff" d=" M 96.9 110.8 C 97.9 112.7 96.7 115 96.6 117 C 95.7 119 95.3 121.3 93.8 122.8 C 90.3 123.7 85.9 123.3 83.3 120.6 C 82.3 117.6 85.1 115.1 87.8 114.5 C 87.6 114.7 87.3 115.1 87.1 115.3 C 85.2 116.1 83.8 117.8 83.7 119.9 C 85.8 122 89.2 122.5 92 122.4 C 94.5 122.1 94.8 119.2 95.8 117.4 C 96.1 115.2 96.6 113 96.9 110.8 Z"/>
<path fill="#ffffff" d=" M 61.3 112.6 C 61.5 112.4 62 112 62.2 111.8 C 69.2 113.6 76.3 115.6 83.6 115.2 L 82.9 116.1 C 75.5 116.5 68.4 114.1 61.3 112.6 Z"/>
<path fill="#000075" d=" M 28.7 112.5 C 31.5 113.7 33.5 116.5 34.4 119.3 C 33.4 118.6 32.5 117.8 31.6 117 C 29.8 118.1 28.1 119.2 26.3 120.3 C 26 119.9 25.4 118.9 25.2 118.5 C 26.9 117.5 28.6 116.5 30.4 115.4 C 29.9 114.7 29.1 113.2 28.7 112.5 Z"/>
<path fill="#fe0002" d=" M 99.4 112.8 C 99.8 112.9 100.6 113 101 113.1 L 101 113.8 C 100.9 114.3 100.7 115.5 100.5 116 L 99.7 115.9 C 99.2 115.4 98.3 114.5 97.9 114.1 C 98.2 113.8 99 113.2 99.4 112.8 Z"/>
<path fill="#000075" d=" M 101 113.1 C 101.2 113 101.7 112.7 102 112.5 C 101.9 114.8 101.8 117 101.9 119.3 L 101.8 119.3 C 99.9 120.8 99.7 124 96.8 124.3 C 96.4 125.8 96.4 127.3 96.8 128.7 C 98 128.9 99.3 129.2 100.6 129.4 C 104 129.7 107.5 129.7 110.9 129 C 110.7 126.9 110.4 124.9 110.2 122.8 C 110.8 122.8 112.1 122.6 112.7 122.5 L 111.6 123.9 C 111.8 125 112.1 127.3 112.3 128.5 C 112 128.9 111.5 129.7 111.3 130.1 C 110.4 130.5 109.5 130.8 108.5 131.1 C 107.1 131.2 105.6 131.2 104.2 131.3 C 101.4 131 98.6 130.4 95.9 129.7 C 95.2 127.8 94.9 125.8 95.7 123.8 L 95.8 123.4 L 95.3 123.4 C 98 123.1 99 120.7 100.3 118.8 C 100.4 118.1 100.5 116.7 100.5 116 C 100.7 115.5 100.9 114.3 101 113.8 L 101 113.1 Z"/>
<path fill="#000075" d=" M 141.8 115.8 C 142.6 115.2 143.3 114.6 144.1 114.1 C 142.7 118.3 139.7 121.6 136.4 124.5 C 134.5 122.9 132.6 121.3 130.7 119.7 C 132.7 118.2 133.9 115.2 136.7 114.9 C 135.5 116.6 134.2 118.2 132.9 119.9 C 135.6 120.6 136.3 116.5 138.9 117 C 138.1 118.7 134.9 120 136.2 122 C 138.9 121.3 140.8 118.3 141.8 115.8 Z"/>
<path fill="#ffffff" d=" M 99.7 115.9 L 100.5 116 C 100.5 116.7 100.4 118.1 100.3 118.8 C 99 120.7 98 123.1 95.3 123.4 C 96.3 120.6 97.5 117.9 99.7 115.9 Z"/>
<path fill="#000075" d=" M 30.2 123.5 C 32.7 122.3 34.5 118.8 37.5 119.9 C 36.9 120.5 35.7 121.9 35.1 122.6 C 36 123.3 36.8 124 37.7 124.7 C 38.6 124 41.4 121.7 41 124.4 C 39.5 126.1 37.9 127.8 36 129.1 C 33.4 128.2 35.9 126.8 36.9 125.6 C 35.9 124.8 35 124 34.1 123.3 C 33.1 124 32.2 124.6 31.2 125.3 C 31 124.8 30.5 123.9 30.2 123.5 Z"/>
<path fill="#000075" d=" M 128.1 122.3 C 128.5 122 129.3 121.2 129.7 120.9 C 130.6 123.2 131.5 125.6 132.1 128 C 131.7 130 129.5 129.4 128.3 128.7 C 126.4 127.9 124.5 126.9 122.7 125.9 C 125.1 124 127.7 126.8 130 127.4 C 129.4 125.7 128.8 124 128.1 122.3 Z"/>
<path fill="#ffffff" d=" M 95.2 123.8 L 95.3 123.4 L 95.8 123.4 L 95.7 123.8 L 95.2 123.8 Z"/>
<path fill="#000075" d=" M 43.3 125.3 C 45.2 126.8 47.9 127.7 49.1 130 C 46.9 129.4 45 127.4 42.6 127.9 C 44.1 129.2 46.1 130.3 47.1 132.1 C 44.9 131.5 43 129.2 40.6 130.1 C 42 132 44.8 132.6 45.3 135 C 42.8 133.7 40.5 132.2 38.2 130.6 C 39.9 128.8 41.6 127 43.3 125.3 Z"/>
<path fill="#000075" d=" M 116 131.9 C 116.4 127.7 123.3 125.8 125.3 129.8 C 126.4 131.4 124.7 133.4 123.5 134.4 C 123.6 133.5 123.8 131.7 123.8 130.8 C 122.3 128.7 119 128.3 117.9 131 C 118 133.8 121.3 133.7 123 135 C 120.3 135.8 116.4 135.3 116 131.9 Z"/>
<path fill="#000075" d=" M 55.4 132.7 C 57.9 131.5 60.8 133.4 61.8 135.8 C 59.7 135.7 58.4 133.8 56.3 133.4 C 57.6 135.2 59.4 136.5 61 138.1 C 59.8 139.5 58.3 140.2 56.4 140.3 C 57.1 139.4 57.8 138.5 58.5 137.6 C 57.1 136.5 52.9 134.7 55.4 132.7 Z"/>
<path fill="#000075" d=" M 110.9 132.2 C 111.6 132 113 131.7 113.7 131.5 C 114.8 133.7 116 135.8 117 138 C 114.6 138.7 114.1 136 112.9 134.6 C 112.6 136.2 114.3 139.1 111.9 139.6 C 111.2 139.2 109.9 138.4 109.2 138 C 109.9 137.4 110.6 136.9 111.3 136.4 C 111.2 135 111 133.6 110.9 132.2 Z"/>
<path fill="#000075" d=" M 105.1 134.2 C 106.8 133.5 108.5 133.3 109.7 135 C 109.1 135.5 108.5 136 107.9 136.5 C 108.5 137.7 109 139 109.5 140.2 C 109 140.3 108 140.6 107.6 140.8 C 106.8 138.5 106 136.4 105.1 134.2 Z"/>
<path fill="#000075" d=" M 61 141.2 C 61.9 138.9 62.8 136.7 63.7 134.4 C 67.1 134.4 66.3 137.7 66.5 140.1 C 67.5 138.7 68.5 137.4 69.4 136 C 70.1 136.1 71.5 136.2 72.1 136.2 C 71.7 138.5 71.3 140.8 70.8 143.1 C 70.3 143.1 69.3 143 68.8 142.9 C 69.2 141.3 69.6 139.7 70 138 C 68.8 139.5 68 141.6 66.3 142.5 C 64 141.8 65.2 138.7 64.6 136.8 C 63.7 138.5 64 142.3 61 141.2 Z"/>
<path fill="#000075" d=" M 53.2 136.1 C 54.6 135.6 56.5 137.9 55.9 139.3 C 54.5 139.2 52.3 137.7 53.2 136.1 Z"/>
<path fill="#000075" d=" M 92.8 137.6 C 95.4 136.3 98.4 136 101.4 135.8 C 100.5 136.6 99.4 137.2 98.2 137.6 C 98.7 139.4 99.3 141.3 99.8 143.1 C 96.6 143.8 97.1 140.2 96.5 138.2 C 95.2 138 94 137.8 92.8 137.6 Z"/>
<path fill="#000075" d=" M 77.3 136.8 C 80.7 137.7 80.9 142 82.6 144.5 C 80.9 144.1 79.5 143.1 78.1 142.2 C 79.2 140.8 78.3 138.4 76.5 139.9 C 76.9 140.5 77.7 141.5 78 142.1 C 76.2 142.4 74.6 143.2 72.9 143.9 C 73.6 141.2 75.9 139.2 77.3 136.8 Z"/>
<path fill="#000075" d=" M 84.1 137.3 C 86.7 137.7 90.5 135.9 92 138.9 C 91.6 139.4 90.7 140.6 90.3 141.1 C 91.4 142.1 92.4 143.1 93.4 144.1 C 90.6 144.3 88.7 142 86.3 140.9 C 86.3 141.7 86.2 143.4 86.2 144.2 C 85.7 144.2 84.6 144.2 84.1 144.2 C 84.1 141.9 84.1 139.6 84.1 137.3 Z"/>
<path fill="#ffe500" d=" M 86.2 138.6 C 87.2 137.9 89.3 137.8 90 139.2 C 89.7 141.1 84.9 140.8 86.2 138.6 Z"/>
</svg>
